<svg version="1.1" xmlns="http://www.w3.org/2000/svg" xmlns:xlink="http://www.w3.org/1999/xlink" width="872.77427" height="455.83037" viewBox="0,0,872.77427,455.83037"><g transform="translate(196.86486,31.68623)"><g data-paper-data="{&quot;isPaintingLayer&quot;:true}" fill-rule="nonzero" stroke-linecap="butt" stroke-linejoin="miter" stroke-miterlimit="10" stroke-dasharray="" stroke-dashoffset="0" style="mix-blend-mode: normal"><path d="M24.5,269.00001v-131h431v131z" fill="none" stroke="#ffffff" stroke-width="5"/><path d="M237.125,180.50001c0,-1.38071 1.11929,-2.5 2.5,-2.5c1.38071,0 2.5,1.11929 2.5,2.5c0,1.38071 -1.11929,2.5 -2.5,2.5c-1.38071,0 -2.5,-1.11929 -2.5,-2.5z" fill="none" stroke="none" stroke-width="0.5"/><path d="M241.19938,141.93312c-0.15459,0.0389 -0.3097,0.06954 -0.46512,0.09227c-0.34323,0.32683 -0.71522,0.60775 -1.15255,0.7843c-1.22441,0.49431 -2.63781,0.12687 -3.95671,0.1903h-3c-1.38071,0 -2.5,-1.11929 -2.5,-2.5c0,-1.1246 0.74256,-2.07576 1.76412,-2.38994l1.48383,-0.49461c-1.69081,-2.62028 -2.38882,-5.84465 -1.05765,-8.07216c0.98565,-1.64934 2.64423,-3.72293 4.55604,-3.53112c1.96953,0.19759 2.95727,2.70661 3.99944,4.38945c0.20994,0.339 -0.14733,0.93804 -0.27362,1.36965c0.24418,0.13382 0.49446,0.26129 0.73883,0.3949c0.18804,-0.04531 0.37522,-0.08143 0.5605,-0.10661c0.51526,-0.27468 1.02119,-0.70691 1.53984,-0.92425l0.60219,1.30514c0.01615,0.01027 0.03223,0.02075 0.04824,0.03143c0.01341,0.00895 0.02672,0.01793 0.03995,0.02696l0.5784,-0.3856l1.98104,2.97156c0.27681,0.40239 0.43883,0.88987 0.43883,1.41519c0,1.38071 -1.11929,2.5 -2.5,2.5c-0.00425,0 -0.00849,-0.00001 -0.01273,-0.00003c-0.95141,1.48072 -2.3162,2.65721 -3.41289,2.93315z" fill="none" stroke="none" stroke-width="0.5"/><path d="M16.07106,-29.98378l451.95102,-0.7009l0.43839,165.38018l-451.95102,0.7009z" fill="#000000" stroke="#000000" stroke-width="2"/><path d="M15.06505,272.58015l451.95102,-0.6312l0.43839,148.93336l-451.95102,0.6312z" fill="#000000" stroke="#000000" stroke-width="2"/><path d="M-195.86486,420.48048v-450.45045h216.21622v450.45045z" fill="#000000" stroke="#000000" stroke-width="2"/><path d="M458.69319,423.14414v-450.45045h216.21622v450.45045z" fill="#000000" stroke="#000000" stroke-width="2"/></g></g></svg>